<svg width="46" height="11" viewBox="0 0 46 11" fill="none" xmlns="http://www.w3.org/2000/svg">
<path d="M9.72927 4.36393H6.11135L4.98964 0.655029L3.86792 4.36393H0.25L3.17278 6.65276L2.06686 10.345L4.98964 8.05613L7.91241 10.345L6.7907 6.63605L9.72927 4.36393Z" fill="#FF9A00"/>
<path d="M18.7332 4.36393H15.1153L13.9935 0.655029L12.8718 4.36393H9.25391L12.1767 6.65276L11.0708 10.345L13.9935 8.05613L16.9163 10.345L15.7946 6.63605L18.7332 4.36393Z" fill="#FF9A00"/>
<path d="M27.741 4.36393H24.1231L23.0014 0.655029L21.8796 4.36393H18.2617L21.1845 6.65276L20.0786 10.345L23.0014 8.05613L25.9241 10.345L24.8024 6.63605L27.741 4.36393Z" fill="#FF9A00"/>
<path d="M36.7449 4.36393H33.127L32.0053 0.655029L30.8835 4.36393H27.2656L30.1884 6.65276L29.0825 10.345L32.0053 8.05613L34.928 10.345L33.8063 6.63605L36.7449 4.36393Z" fill="#FF9A00"/>
<path d="M41.413 4.58105L41.5742 5.11393H42.1309H43.5527L42.3515 6.04272L41.9428 6.35871L42.0923 6.85317L42.5277 8.2927L41.4716 7.46564L41.0092 7.10352L40.5468 7.46564L39.482 8.29945L39.9108 6.86796L40.0576 6.37776L39.6547 6.06227L38.4437 5.11393H39.8875H40.4442L40.6053 4.58105L41.0092 3.24581L41.413 4.58105Z" fill="white" stroke="black" stroke-width="1.5"/>
</svg>
