<svg width="293" height="47" viewBox="0 0 293 47" fill="none" xmlns="http://www.w3.org/2000/svg">
<path d="M0.712358 8.17614V2.09091H29.3828V8.17614H18.6953V37H11.3999V8.17614H0.712358ZM42.0007 37.5114C39.353 37.5114 37.0632 36.9489 35.1314 35.8239C33.2109 34.6875 31.728 33.108 30.6825 31.0852C29.6371 29.0511 29.1143 26.6932 29.1143 24.0114C29.1143 21.3068 29.6371 18.9432 30.6825 16.9205C31.728 14.8864 33.2109 13.3068 35.1314 12.1818C37.0632 11.0455 39.353 10.4773 42.0007 10.4773C44.6484 10.4773 46.9325 11.0455 48.853 12.1818C50.7848 13.3068 52.2734 14.8864 53.3189 16.9205C54.3643 18.9432 54.8871 21.3068 54.8871 24.0114C54.8871 26.6932 54.3643 29.0511 53.3189 31.0852C52.2734 33.108 50.7848 34.6875 48.853 35.8239C46.9325 36.9489 44.6484 37.5114 42.0007 37.5114ZM42.0348 31.8864C43.2393 31.8864 44.245 31.5455 45.0518 30.8636C45.8587 30.1705 46.4666 29.2273 46.8757 28.0341C47.2962 26.8409 47.5064 25.483 47.5064 23.9602C47.5064 22.4375 47.2962 21.0795 46.8757 19.8864C46.4666 18.6932 45.8587 17.75 45.0518 17.0568C44.245 16.3636 43.2393 16.017 42.0348 16.017C40.8189 16.017 39.7962 16.3636 38.9666 17.0568C38.1484 17.75 37.5291 18.6932 37.1087 19.8864C36.6996 21.0795 36.495 22.4375 36.495 23.9602C36.495 25.483 36.6996 26.8409 37.1087 28.0341C37.5291 29.2273 38.1484 30.1705 38.9666 30.8636C39.7962 31.5455 40.8189 31.8864 42.0348 31.8864ZM59.6087 46.8182V10.8182H66.7678V15.2159H67.0916C67.4098 14.5114 67.87 13.7955 68.4723 13.0682C69.0859 12.3295 69.8814 11.7159 70.8587 11.2273C71.8473 10.7273 73.0746 10.4773 74.5405 10.4773C76.4496 10.4773 78.2109 10.9773 79.8246 11.9773C81.4382 12.9659 82.728 14.4602 83.6939 16.4602C84.6598 18.4489 85.1428 20.9432 85.1428 23.9432C85.1428 26.8636 84.6712 29.3295 83.728 31.3409C82.7962 33.3409 81.5234 34.858 79.9098 35.892C78.3075 36.9148 76.5121 37.4261 74.5234 37.4261C73.1143 37.4261 71.9155 37.1932 70.9268 36.7273C69.9496 36.2614 69.1484 35.6761 68.5234 34.9716C67.8984 34.2557 67.4212 33.5341 67.0916 32.8068H66.87V46.8182H59.6087ZM66.7166 23.9091C66.7166 25.4659 66.9325 26.8239 67.3643 27.983C67.7962 29.142 68.4212 30.0455 69.2393 30.6932C70.0575 31.3295 71.0518 31.6477 72.2223 31.6477C73.4041 31.6477 74.4041 31.3239 75.2223 30.6761C76.0405 30.017 76.6598 29.108 77.0803 27.9489C77.5121 26.7784 77.728 25.4318 77.728 23.9091C77.728 22.3977 77.5178 21.0682 77.0973 19.9205C76.6768 18.7727 76.0575 17.875 75.2393 17.2273C74.4212 16.5795 73.4155 16.2557 72.2223 16.2557C71.0405 16.2557 70.0405 16.5682 69.2223 17.1932C68.4155 17.8182 67.7962 18.7045 67.3643 19.8523C66.9325 21 66.7166 22.3523 66.7166 23.9091ZM101.229 37V2.09091H115.002C117.638 2.09091 119.888 2.5625 121.752 3.50568C123.627 4.4375 125.053 5.76136 126.031 7.47727C127.019 9.18182 127.513 11.1875 127.513 13.4943C127.513 15.8125 127.013 17.8068 126.013 19.4773C125.013 21.1364 123.565 22.4091 121.667 23.2955C119.781 24.1818 117.496 24.625 114.815 24.625H105.593V18.6932H113.621C115.031 18.6932 116.201 18.5 117.133 18.1136C118.065 17.7273 118.758 17.1477 119.212 16.375C119.678 15.6023 119.911 14.642 119.911 13.4943C119.911 12.3352 119.678 11.358 119.212 10.5625C118.758 9.76704 118.059 9.16477 117.116 8.75568C116.184 8.33523 115.008 8.125 113.587 8.125H108.61V37H101.229ZM120.082 21.1136L128.758 37H120.61L112.121 21.1136H120.082ZM144.103 37.5114C141.41 37.5114 139.092 36.9659 137.148 35.875C135.217 34.7727 133.728 33.2159 132.683 31.2045C131.637 29.1818 131.114 26.7898 131.114 24.0284C131.114 21.3352 131.637 18.9716 132.683 16.9375C133.728 14.9034 135.2 13.3182 137.097 12.1818C139.006 11.0455 141.245 10.4773 143.813 10.4773C145.54 10.4773 147.148 10.7557 148.637 11.3125C150.137 11.858 151.444 12.6818 152.558 13.7841C153.683 14.8864 154.558 16.2727 155.183 17.9432C155.808 19.6023 156.12 21.5455 156.12 23.7727V25.767H134.012V21.267H149.285C149.285 20.2216 149.058 19.2955 148.603 18.4886C148.148 17.6818 147.518 17.0511 146.711 16.5966C145.915 16.1307 144.989 15.8977 143.933 15.8977C142.83 15.8977 141.853 16.1534 141.001 16.6648C140.16 17.1648 139.501 17.8409 139.023 18.6932C138.546 19.5341 138.302 20.4716 138.29 21.5057V25.7841C138.29 27.0795 138.529 28.1989 139.006 29.142C139.495 30.0852 140.183 30.8125 141.069 31.3239C141.955 31.8352 143.006 32.0909 144.222 32.0909C145.029 32.0909 145.768 31.9773 146.438 31.75C147.109 31.5227 147.683 31.1818 148.16 30.7273C148.637 30.2727 149.001 29.7159 149.251 29.0568L155.967 29.5C155.626 31.1136 154.927 32.5227 153.87 33.7273C152.825 34.9205 151.472 35.8523 149.813 36.5227C148.165 37.1818 146.262 37.5114 144.103 37.5114ZM172.688 37.5114C170.006 37.5114 167.7 36.9432 165.768 35.8068C163.847 34.6591 162.37 33.0682 161.336 31.0341C160.313 29 159.802 26.6591 159.802 24.0114C159.802 21.3295 160.319 18.9773 161.353 16.9545C162.398 14.9205 163.881 13.3352 165.802 12.1989C167.722 11.0511 170.006 10.4773 172.654 10.4773C174.938 10.4773 176.938 10.892 178.654 11.7216C180.37 12.5511 181.728 13.7159 182.728 15.2159C183.728 16.7159 184.279 18.4773 184.381 20.5H177.529C177.336 19.1932 176.825 18.142 175.995 17.3466C175.177 16.5398 174.103 16.1364 172.773 16.1364C171.648 16.1364 170.665 16.4432 169.825 17.0568C168.995 17.6591 168.347 18.5398 167.881 19.6989C167.415 20.858 167.183 22.2614 167.183 23.9091C167.183 25.5795 167.41 27 167.864 28.1705C168.33 29.3409 168.984 30.233 169.825 30.8466C170.665 31.4602 171.648 31.767 172.773 31.767C173.603 31.767 174.347 31.5966 175.006 31.2557C175.677 30.9148 176.228 30.4205 176.66 29.7727C177.103 29.1136 177.393 28.3239 177.529 27.4034H184.381C184.268 29.4034 183.722 31.1648 182.745 32.6875C181.779 34.1989 180.444 35.3807 178.739 36.233C177.035 37.0852 175.018 37.5114 172.688 37.5114ZM189.031 37V10.8182H196.07V15.3864H196.343C196.82 13.7614 197.621 12.5341 198.746 11.7045C199.871 10.8636 201.167 10.4432 202.633 10.4432C202.996 10.4432 203.388 10.4659 203.809 10.5114C204.229 10.5568 204.599 10.6193 204.917 10.6989V17.142C204.576 17.0398 204.104 16.9489 203.502 16.8693C202.9 16.7898 202.349 16.75 201.849 16.75C200.781 16.75 199.826 16.983 198.985 17.4489C198.156 17.9034 197.496 18.5398 197.008 19.358C196.531 20.1761 196.292 21.1193 196.292 22.1875V37H189.031ZM225.461 25.8523V10.8182H232.722V37H225.751V32.2443H225.478C224.887 33.7784 223.904 35.0114 222.529 35.9432C221.165 36.875 219.501 37.3409 217.535 37.3409C215.785 37.3409 214.245 36.9432 212.915 36.1477C211.586 35.3523 210.546 34.2216 209.796 32.7557C209.058 31.2898 208.683 29.5341 208.671 27.4886V10.8182H215.933V26.1932C215.944 27.7386 216.359 28.9602 217.177 29.858C217.995 30.7557 219.092 31.2045 220.467 31.2045C221.342 31.2045 222.16 31.0057 222.921 30.608C223.683 30.1989 224.296 29.5966 224.762 28.8011C225.239 28.0057 225.472 27.0227 225.461 25.8523ZM238.531 37V10.8182H245.792V37H238.531ZM242.178 7.44318C241.099 7.44318 240.173 7.08523 239.4 6.36932C238.638 5.64204 238.258 4.77273 238.258 3.76136C238.258 2.76136 238.638 1.90341 239.4 1.1875C240.173 0.460226 241.099 0.0965891 242.178 0.0965891C243.258 0.0965891 244.178 0.460226 244.94 1.1875C245.712 1.90341 246.099 2.76136 246.099 3.76136C246.099 4.77273 245.712 5.64204 244.94 6.36932C244.178 7.08523 243.258 7.44318 242.178 7.44318ZM265.535 10.8182V16.2727H249.768V10.8182H265.535ZM253.347 4.54545H260.609V28.9545C260.609 29.625 260.711 30.1477 260.915 30.5227C261.12 30.8864 261.404 31.142 261.768 31.2898C262.143 31.4375 262.575 31.5114 263.063 31.5114C263.404 31.5114 263.745 31.483 264.086 31.4261C264.427 31.358 264.688 31.3068 264.87 31.2727L266.012 36.6761C265.648 36.7898 265.137 36.9205 264.478 37.0682C263.819 37.2273 263.018 37.3239 262.075 37.358C260.325 37.4261 258.79 37.1932 257.472 36.6591C256.165 36.125 255.148 35.2955 254.421 34.1705C253.694 33.0455 253.336 31.625 253.347 29.9091V4.54545ZM291.721 18.2841L285.073 18.6932C284.96 18.125 284.715 17.6136 284.34 17.1591C283.965 16.6932 283.471 16.3239 282.857 16.0511C282.255 15.767 281.533 15.625 280.692 15.625C279.567 15.625 278.619 15.8636 277.846 16.3409C277.073 16.8068 276.687 17.4318 276.687 18.2159C276.687 18.8409 276.937 19.3693 277.437 19.8011C277.937 20.233 278.795 20.5795 280.011 20.8409L284.749 21.7955C287.295 22.3182 289.192 23.1591 290.442 24.3182C291.692 25.4773 292.317 27 292.317 28.8864C292.317 30.6023 291.812 32.108 290.8 33.4034C289.8 34.6989 288.425 35.7102 286.675 36.4375C284.937 37.1534 282.931 37.5114 280.658 37.5114C277.192 37.5114 274.431 36.7898 272.374 35.3466C270.329 33.892 269.13 31.9148 268.778 29.4148L275.92 29.0398C276.136 30.0966 276.658 30.9034 277.488 31.4602C278.317 32.0057 279.38 32.2784 280.675 32.2784C281.948 32.2784 282.971 32.0341 283.744 31.5455C284.528 31.0455 284.925 30.4034 284.937 29.6193C284.925 28.9602 284.647 28.4205 284.102 28C283.556 27.5682 282.715 27.2386 281.579 27.0114L277.045 26.108C274.488 25.5966 272.585 24.7102 271.335 23.4489C270.096 22.1875 269.477 20.5795 269.477 18.625C269.477 16.9432 269.931 15.4943 270.84 14.2784C271.761 13.0625 273.05 12.125 274.71 11.4659C276.38 10.8068 278.335 10.4773 280.573 10.4773C283.88 10.4773 286.482 11.1761 288.38 12.5739C290.289 13.9716 291.403 15.875 291.721 18.2841Z" fill="#08182F"/>
</svg>
