<svg width="16" height="17" viewBox="0 0 16 17" fill="none" xmlns="http://www.w3.org/2000/svg">
<path d="M10.6673 11.5909L12.0451 10.2126C12.2307 10.0293 12.4654 9.90379 12.7209 9.85136C12.9764 9.79893 13.2416 9.82183 13.4844 9.91728L15.1635 10.588C15.4088 10.6876 15.6191 10.8576 15.768 11.0766C15.9169 11.2956 15.9976 11.5538 16 11.8186V14.8952C15.9986 15.0753 15.9607 15.2533 15.8887 15.4185C15.8167 15.5836 15.712 15.7325 15.581 15.8561C15.45 15.9797 15.2953 16.0754 15.1263 16.1377C14.9573 16.1999 14.7775 16.2273 14.5976 16.2181C2.83136 15.4859 0.457192 5.51776 0.00819117 1.70279C-0.0126518 1.51545 0.00639187 1.32581 0.0640691 1.14636C0.121746 0.966913 0.21675 0.801713 0.34283 0.661632C0.468911 0.521551 0.62321 0.409764 0.795577 0.333624C0.967944 0.257484 1.15447 0.218717 1.34289 0.219874H4.31368C4.57878 0.220659 4.83758 0.300768 5.0568 0.449898C5.27602 0.599027 5.44563 0.810357 5.54382 1.05671L6.21424 2.73652C6.31281 2.97838 6.33796 3.24394 6.28654 3.50002C6.23513 3.75609 6.10944 3.99134 5.92516 4.17637L4.5474 5.55468C4.5474 5.55468 5.34085 10.9264 10.6673 11.5909Z" fill="#2B2B2B"/>
</svg>
