<svg width="16" height="17" viewBox="0 0 16 17" fill="none" xmlns="http://www.w3.org/2000/svg">
<path d="M16 4.89479V13.6665C16 14.4825 15.7366 15.2652 15.2678 15.8422C14.7989 16.4192 14.163 16.7434 13.5 16.7434H2.5C1.83696 16.7434 1.20107 16.4192 0.732233 15.8422C0.263392 15.2652 0 14.4825 0 13.6665V4.89479L7.746 10.5046C7.82295 10.5605 7.91066 10.59 8 10.59C8.08934 10.59 8.17705 10.5605 8.254 10.5046L16 4.89479ZM13.5 0.743408C14.1151 0.743289 14.7087 1.02231 15.1672 1.52709C15.6257 2.03187 15.9168 2.72697 15.985 3.47941L8 9.26033L0.0150001 3.47941C0.0831583 2.72697 0.374324 2.03187 0.832795 1.52709C1.29127 1.02231 1.88485 0.743289 2.5 0.743408H13.5Z" fill="#2B2B2B"/>
</svg>
