<svg width="18" height="18" viewBox="0 0 18 18" fill="none" xmlns="http://www.w3.org/2000/svg">
<path d="M17.942 5.31279C17.9319 4.557 17.7902 3.80874 17.5232 3.10145C17.2917 2.50486 16.938 1.96305 16.4848 1.51064C16.0317 1.05823 15.489 0.705162 14.8914 0.474C14.192 0.21191 13.4532 0.0701931 12.7064 0.0548842C11.7448 0.0119748 11.4399 0 8.999 0C6.55809 0 6.24522 6.6914e-08 5.29065 0.0548842C4.54414 0.0703057 3.80566 0.212021 3.10662 0.474C2.50894 0.705001 1.96615 1.05801 1.51296 1.51044C1.05977 1.96288 0.706175 2.50477 0.474789 3.10145C0.211737 3.79911 0.070092 4.53653 0.0559751 5.28185C0.0129942 6.24282 0 6.54718 0 8.98403C0 11.4209 -7.44727e-09 11.7322 0.0559751 12.6862C0.0709685 13.4326 0.211906 14.1691 0.474789 14.8686C0.706564 15.4651 1.06042 16.0068 1.51376 16.459C1.9671 16.9113 2.50995 17.2641 3.10762 17.4951C3.80474 17.7677 4.54335 17.9196 5.29165 17.9441C6.25422 17.987 6.55909 18 9 18C11.4409 18 11.7538 18 12.7084 17.9441C13.4552 17.9294 14.1941 17.788 14.8934 17.526C15.4908 17.2946 16.0334 16.9414 16.4865 16.489C16.9396 16.0367 17.2934 15.495 17.5252 14.8985C17.7881 14.2 17.929 13.4636 17.944 12.7162C17.987 11.7562 18 11.4518 18 9.01397C17.998 6.57712 17.998 6.26777 17.942 5.31279ZM8.993 13.5923C6.44014 13.5923 4.37206 11.5277 4.37206 8.97905C4.37206 6.43043 6.44014 4.36578 8.993 4.36578C10.2186 4.36578 11.3939 4.85182 12.2605 5.71698C13.1271 6.58213 13.614 7.75553 13.614 8.97905C13.614 10.2026 13.1271 11.376 12.2605 12.2411C11.3939 13.1063 10.2186 13.5923 8.993 13.5923ZM13.7979 5.27087C13.6563 5.271 13.5162 5.24327 13.3854 5.18926C13.2546 5.13524 13.1357 5.05601 13.0357 4.95609C12.9356 4.85618 12.8562 4.73754 12.8021 4.60696C12.748 4.47639 12.7202 4.33645 12.7203 4.19514C12.7203 4.05394 12.7482 3.91412 12.8023 3.78367C12.8565 3.65322 12.9358 3.53469 13.0358 3.43484C13.1358 3.335 13.2545 3.2558 13.3852 3.20176C13.5159 3.14773 13.6559 3.11991 13.7974 3.11991C13.9388 3.11991 14.0789 3.14773 14.2095 3.20176C14.3402 3.2558 14.4589 3.335 14.5589 3.43484C14.6589 3.53469 14.7383 3.65322 14.7924 3.78367C14.8465 3.91412 14.8744 4.05394 14.8744 4.19514C14.8744 4.78989 14.3926 5.27087 13.7979 5.27087Z" fill="#2B2B2B"/>
<path d="M9.07881 12.0606C10.7366 12.0606 12.0805 10.719 12.0805 9.06394C12.0805 7.40892 10.7366 6.06726 9.07881 6.06726C7.42104 6.06726 6.07715 7.40892 6.07715 9.06394C6.07715 10.719 7.42104 12.0606 9.07881 12.0606Z" fill="#2B2B2B"/>
</svg>
