<svg width="16" height="17" viewBox="0 0 16 17" fill="none" xmlns="http://www.w3.org/2000/svg">
<path d="M8 0.696289C5.87904 0.698255 3.84566 1.36113 2.34592 2.5395C0.846168 3.71788 0.00251067 5.31553 8.51118e-06 6.982C-0.00253177 8.34385 0.56363 9.66874 1.61164 10.7534C1.61164 10.7534 1.82982 10.9791 1.86546 11.0117L8 16.6963L14.1374 11.0089C14.1694 10.9786 14.3884 10.7534 14.3884 10.7534L14.3891 10.7517C15.4366 9.6675 16.0025 8.34322 16 6.982C15.9975 5.31553 15.1538 3.71788 13.6541 2.5395C12.1543 1.36113 10.121 0.698255 8 0.696289ZM8 9.26772C7.42464 9.26772 6.8622 9.13366 6.3838 8.8825C5.9054 8.63135 5.53254 8.27437 5.31235 7.85671C5.09217 7.43905 5.03456 6.97947 5.14681 6.53608C5.25906 6.0927 5.53612 5.68542 5.94296 5.36576C6.34981 5.0461 6.86816 4.8284 7.43247 4.74021C7.99677 4.65201 8.58169 4.69728 9.11326 4.87028C9.64483 5.04328 10.0992 5.33625 10.4188 5.71213C10.7385 6.08801 10.9091 6.52993 10.9091 6.982C10.9081 7.58798 10.6013 8.16892 10.056 8.59741C9.51062 9.0259 8.77124 9.26696 8 9.26772Z" fill="#2B2B2B"/>
</svg>
