<svg xmlns="http://www.w3.org/2000/svg" width="16" height="17" viewBox="0 0 16 17" fill="none">
  <path d="M7.33268 8.50004C7.33268 8.86823 7.63116 9.16671 7.99935 9.16671C8.36754 9.16671 8.66602 8.86823 8.66602 8.50004C8.66602 8.13185 8.36754 7.83337 7.99935 7.83337C7.63116 7.83337 7.33268 8.13185 7.33268 8.50004Z" stroke="#2B2B2B" stroke-width="2" stroke-linecap="round" stroke-linejoin="round"/>
  <path d="M12.0007 8.50004C12.0007 8.86823 12.2991 9.16671 12.6673 9.16671C13.0355 9.16671 13.334 8.86823 13.334 8.50004C13.334 8.13185 13.0355 7.83337 12.6673 7.83337C12.2991 7.83337 12.0007 8.13185 12.0007 8.50004Z" stroke="#2B2B2B" stroke-width="2" stroke-linecap="round" stroke-linejoin="round"/>
  <path d="M2.66667 8.50004C2.66667 8.86823 2.96514 9.16671 3.33333 9.16671C3.70152 9.16671 4 8.86823 4 8.50004C4 8.13185 3.70152 7.83337 3.33333 7.83337C2.96514 7.83337 2.66667 8.13185 2.66667 8.50004Z" stroke="#2B2B2B" stroke-width="2" stroke-linecap="round" stroke-linejoin="round"/>
</svg>