<svg xmlns="http://www.w3.org/2000/svg" width="16" height="17" viewBox="0 0 16 17" fill="none">
  <g clip-path="url(#clip0_2522_6213)">
    <path d="M7.33398 3.16663H2.66732C2.3137 3.16663 1.97456 3.3071 1.72451 3.55715C1.47446 3.8072 1.33398 4.14634 1.33398 4.49996V13.8333C1.33398 14.1869 1.47446 14.5261 1.72451 14.7761C1.97456 15.0262 2.3137 15.1666 2.66732 15.1666H12.0007C12.3543 15.1666 12.6934 15.0262 12.9435 14.7761C13.1935 14.5261 13.334 14.1869 13.334 13.8333V9.16663" stroke="#2B2B2B" stroke-width="2" stroke-linecap="round" stroke-linejoin="round"/>
    <path d="M12.334 2.16665C12.5992 1.90144 12.9589 1.75244 13.334 1.75244C13.7091 1.75244 14.0688 1.90144 14.334 2.16665C14.5992 2.43187 14.7482 2.79158 14.7482 3.16665C14.7482 3.54173 14.5992 3.90144 14.334 4.16665L8.00065 10.5L5.33398 11.1667L6.00065 8.49999L12.334 2.16665Z" stroke="#2B2B2B" stroke-width="2" stroke-linecap="round" stroke-linejoin="round"/>
  </g>
  <defs>
    <clipPath id="clip0_2522_6213">
      <rect width="16" height="16" fill="white" transform="translate(0 0.5)"/>
    </clipPath>
  </defs>
</svg>